# xmcd
#
# Track frame offsets:
#	150
#	14946
#	29075
#	43076
#	58218
#	74093
#	89741
#	103871
#	119745
#	131707
#	144349
#	160377
#	180872
#	195773
#	209970
#	225351
#	239135
#	253209
#	263823
#	274280
#
# Disc length: 3850 seconds
#
# Revision: 0
# Processed by: cddbd v1.4PL0 Copyright (c) Steve Scherf et al.
# Submitted via: dBpowerAMP V4.0
#
DISCID=4a0f0814
DTITLE=Banda el Limon - 20 EXITOS
DYEAR=2003
DGENRE=Other
TTITLE0=Marco Leyva
TTITLE1=La caida de de un Monarca
TTITLE2=El balido de mi ganado
TTITLE3=El corrido del Chero
TTITLE4=Los Traficantes
TTITLE5=El gato negro
TTITLE6=Juan Marttha
TTITLE7=El Leon de la Sierra
TTITLE8=Leonardo Reyes
TTITLE9=El 24 de Junio
TTITLE10=Los dos Plebes
TTITLE11=Candido Rodriguez
TTITLE12=Lineas de a metro
TTITLE13=Corrido del Sinaloense
TTITLE14=Pacas de a kilo
TTITLE15=Laurita Garza
TTITLE16=El Comandante Montaña
TTITLE17=Pancho Treviño
TTITLE18=Corrido de Julio Cesar Chavez
TTITLE19=Gordo y mantecoso
EXTD=Musica de Banda (Mèxico)
EXTT0=
EXTT1=
EXTT2=
EXTT3=
EXTT4=
EXTT5=
EXTT6=
EXTT7=
EXTT8=
EXTT9=
EXTT10=
EXTT11=
EXTT12=
EXTT13=
EXTT14=
EXTT15=
EXTT16=
EXTT17=
EXTT18=
EXTT19=
PLAYORDER=
